<svg width="212" height="208" viewBox="0 0 212 208" fill="none" xmlns="http://www.w3.org/2000/svg">
<path d="M207.5 104C207.5 158.872 162.138 203.5 106 203.5C49.8619 203.5 4.5 158.872 4.5 104C4.5 49.1281 49.8619 4.5 106 4.5C162.138 4.5 207.5 49.1281 207.5 104Z" fill="white" stroke="#222222" stroke-width="9"/>
<path fill-rule="evenodd" clip-rule="evenodd" d="M110 43C110 39.6863 107.314 37 104 37C100.686 37 98 39.6863 98 43V98C98 98.2549 98.0159 98.506 98.0467 98.7525C97.8583 100.253 98.2331 101.825 99.2187 103.125L133.904 148.877C135.906 151.517 139.669 152.035 142.31 150.033C144.951 148.031 145.468 144.268 143.467 141.627L110 97.4827V43Z" fill="#222222"/>
</svg>
